G04 #@! TF.FileFunction,Copper,L2,Bot,Signal*
%FSLAX46Y46*%
G04 Gerber Fmt 4.6, Leading zero omitted, Abs format (unit mm)*
G04 Created by KiCad (PCBNEW 4.0.6) date Sunday, 30 April 2023 'AMt' 07:25:10*
%MOMM*%
%LPD*%
G01*
G04 APERTURE LIST*
%ADD10C,0.100000*%
%ADD11C,1.500000*%
%ADD12R,1.727200X2.032000*%
%ADD13O,1.727200X2.800000*%
%ADD14O,5.000000X3.810000*%
%ADD15R,5.000000X3.810000*%
%ADD16R,3.500000X2.540000*%
%ADD17O,3.500000X2.540000*%
%ADD18R,2.032000X2.800000*%
%ADD19O,2.032000X2.800000*%
%ADD20R,2.800000X1.727200*%
%ADD21O,2.800000X1.727200*%
%ADD22O,2.500000X1.524000*%
%ADD23C,1.800000*%
%ADD24C,2.000000*%
%ADD25C,1.200000*%
%ADD26C,0.800000*%
%ADD27C,1.000000*%
G04 APERTURE END LIST*
D10*
D11*
X20190000Y4490000D03*
X20190000Y9490000D03*
D12*
X35770000Y25490000D03*
D13*
X38310000Y25490000D03*
X40850000Y25490000D03*
X43390000Y25490000D03*
X45930000Y25490000D03*
D14*
X5010000Y17940000D03*
X5010000Y12860000D03*
D15*
X5010000Y23020000D03*
D14*
X5010000Y7780000D03*
D16*
X79980000Y18130000D03*
D17*
X79980000Y13050000D03*
X79980000Y7970000D03*
D18*
X56230000Y4800000D03*
D19*
X53690000Y4800000D03*
D20*
X62980000Y15300000D03*
D21*
X62980000Y12760000D03*
X62980000Y10220000D03*
X62980000Y7680000D03*
D22*
X69610000Y16070000D03*
X69610000Y18610000D03*
X69610000Y21150000D03*
X69610000Y13530000D03*
X69610000Y10990000D03*
X69610000Y8450000D03*
D23*
X38730000Y6550000D03*
D24*
X58900000Y19130000D03*
X65340000Y26480000D03*
D25*
X38962000Y11734000D03*
X36676000Y9956000D03*
D23*
X46730000Y4300000D03*
D24*
X23730000Y17410000D03*
X49340000Y25530000D03*
D23*
X53230000Y17050000D03*
X39480000Y17300000D03*
X38480000Y13800000D03*
D26*
X69610000Y18610000D02*
X79500000Y18610000D01*
X79500000Y18610000D02*
X79980000Y18130000D01*
X58900000Y19130000D02*
X69090000Y19130000D01*
X69090000Y19130000D02*
X69610000Y18610000D01*
X62980000Y12760000D02*
X60770000Y12760000D01*
X59980000Y18050000D02*
X58900000Y19130000D01*
X59980000Y13550000D02*
X59980000Y18050000D01*
X60770000Y12760000D02*
X59980000Y13550000D01*
X50230000Y7300000D02*
X50230000Y4050000D01*
X38730000Y6550000D02*
X39480000Y7300000D01*
X39480000Y7300000D02*
X50230000Y7300000D01*
X56230000Y2800000D02*
X56230000Y4800000D01*
X55980000Y2550000D02*
X56230000Y2800000D01*
X51730000Y2550000D02*
X55980000Y2550000D01*
X50230000Y4050000D02*
X51730000Y2550000D01*
X35770000Y25490000D02*
X35770000Y26400000D01*
X35770000Y26400000D02*
X37070000Y27700000D01*
X65340000Y27430000D02*
X65340000Y26480000D01*
X64690000Y28080000D02*
X65340000Y27430000D01*
X48000000Y28080000D02*
X64690000Y28080000D01*
X47620000Y27700000D02*
X48000000Y28080000D01*
X37070000Y27700000D02*
X47620000Y27700000D01*
X65340000Y25570000D02*
X65340000Y26480000D01*
X58900000Y19130000D02*
X65340000Y25570000D01*
X38454000Y11734000D02*
X38962000Y11734000D01*
X36676000Y9956000D02*
X38454000Y11734000D01*
X46230000Y4800000D02*
X37980000Y4800000D01*
X46730000Y4300000D02*
X46230000Y4800000D01*
X23730000Y17410000D02*
X28285000Y21965000D01*
X38310000Y23070000D02*
X38310000Y25490000D01*
X38895000Y21965000D02*
X39415000Y21965000D01*
X32480000Y15550000D02*
X38895000Y21965000D01*
X32480000Y10300000D02*
X32480000Y15550000D01*
X37980000Y4800000D02*
X32480000Y10300000D01*
X39440000Y21940000D02*
X39415000Y21965000D01*
X49340000Y25530000D02*
X49300000Y25490000D01*
X49300000Y22250000D02*
X48990000Y21940000D01*
X49300000Y25490000D02*
X49300000Y22250000D01*
X48990000Y21940000D02*
X39440000Y21940000D01*
X28285000Y21965000D02*
X39415000Y21965000D01*
X39415000Y21965000D02*
X38310000Y23070000D01*
X39730000Y17050000D02*
X53230000Y17050000D01*
X39480000Y17300000D02*
X39730000Y17050000D01*
X62980000Y7680000D02*
X65610000Y7680000D01*
X67960000Y13530000D02*
X69610000Y13530000D01*
X67230000Y12800000D02*
X67960000Y13530000D01*
X67230000Y9300000D02*
X67230000Y12800000D01*
X65610000Y7680000D02*
X67230000Y9300000D01*
X44480000Y14220000D02*
X49310000Y14220000D01*
X38480000Y13800000D02*
X38900000Y14220000D01*
X38900000Y14220000D02*
X44400000Y14220000D01*
X44400000Y14220000D02*
X44480000Y14300000D01*
X44480000Y14300000D02*
X44480000Y14220000D01*
X53310000Y10220000D02*
X62980000Y10220000D01*
X49310000Y14220000D02*
X53310000Y10220000D01*
X62980000Y10220000D02*
X65400000Y10220000D01*
X66500000Y16070000D02*
X69610000Y16070000D01*
X65730000Y15300000D02*
X66500000Y16070000D01*
X65730000Y10550000D02*
X65730000Y15300000D01*
X65400000Y10220000D02*
X65730000Y10550000D01*
X69610000Y10990000D02*
X73170000Y10990000D01*
X75230000Y13050000D02*
X79980000Y13050000D01*
X73170000Y10990000D02*
X75230000Y13050000D01*
X69610000Y8450000D02*
X74380000Y8450000D01*
X74860000Y7970000D02*
X79980000Y7970000D01*
X74380000Y8450000D02*
X74860000Y7970000D01*
D27*
G36*
X55130000Y18543760D02*
X54591266Y19083435D01*
X53709484Y19449583D01*
X52754705Y19450416D01*
X51872285Y19085808D01*
X51736240Y18950000D01*
X43860000Y18950000D01*
X43860000Y22626675D01*
X44294511Y22713104D01*
X44660000Y22957316D01*
X45025489Y22713104D01*
X45930000Y22533186D01*
X46834511Y22713104D01*
X47601318Y23225468D01*
X48113682Y23992275D01*
X48293600Y24896786D01*
X48293600Y25933987D01*
X48347099Y25944629D01*
X48699357Y26180000D01*
X55130000Y26180000D01*
X55130000Y18543760D01*
X55130000Y18543760D01*
G37*
X55130000Y18543760D02*
X54591266Y19083435D01*
X53709484Y19449583D01*
X52754705Y19450416D01*
X51872285Y19085808D01*
X51736240Y18950000D01*
X43860000Y18950000D01*
X43860000Y22626675D01*
X44294511Y22713104D01*
X44660000Y22957316D01*
X45025489Y22713104D01*
X45930000Y22533186D01*
X46834511Y22713104D01*
X47601318Y23225468D01*
X48113682Y23992275D01*
X48293600Y24896786D01*
X48293600Y25933987D01*
X48347099Y25944629D01*
X48699357Y26180000D01*
X55130000Y26180000D01*
X55130000Y18543760D01*
G36*
X66730000Y26975000D02*
X86405000Y26975000D01*
X86405000Y1875000D01*
X67702416Y1875000D01*
X67492726Y2015110D01*
X66890000Y2135000D01*
X54802934Y2135000D01*
X55469081Y2580105D01*
X56014481Y3396354D01*
X56206000Y4359186D01*
X56206000Y5240814D01*
X56014481Y6203646D01*
X55469081Y7019895D01*
X54652832Y7565295D01*
X53690000Y7756814D01*
X52727168Y7565295D01*
X51910919Y7019895D01*
X51365519Y6203646D01*
X51174000Y5240814D01*
X51174000Y4359186D01*
X51365519Y3396354D01*
X51910919Y2580105D01*
X52577066Y2135000D01*
X47775046Y2135000D01*
X48087715Y2264192D01*
X48763435Y2938734D01*
X49129583Y3820516D01*
X49130416Y4775295D01*
X48765808Y5657715D01*
X48091266Y6333435D01*
X47209484Y6699583D01*
X46254705Y6700416D01*
X46245997Y6696818D01*
X46230000Y6700000D01*
X38767006Y6700000D01*
X37459481Y8007525D01*
X37864000Y8174669D01*
X38455255Y8764893D01*
X38656464Y9249458D01*
X39040937Y9633931D01*
X39377883Y9633637D01*
X40150000Y9952669D01*
X40741255Y10542893D01*
X41061634Y11314452D01*
X41062363Y12149883D01*
X40992072Y12320000D01*
X44400000Y12320000D01*
X44440000Y12327956D01*
X44480000Y12320000D01*
X48522994Y12320000D01*
X51966497Y8876497D01*
X52582901Y8464629D01*
X53310000Y8320000D01*
X60150490Y8320000D01*
X60023186Y7680000D01*
X60203104Y6775489D01*
X60715468Y6008682D01*
X61482275Y5496318D01*
X62386786Y5316400D01*
X63573214Y5316400D01*
X64477725Y5496318D01*
X64902285Y5780000D01*
X65610000Y5780000D01*
X66337099Y5924629D01*
X66953503Y6336497D01*
X67468200Y6851194D01*
X67468648Y6850524D01*
X68202494Y6360184D01*
X69068124Y6188000D01*
X70151876Y6188000D01*
X71017506Y6360184D01*
X71301586Y6550000D01*
X73630983Y6550000D01*
X74132902Y6214628D01*
X74860000Y6069999D01*
X74860005Y6070000D01*
X77438430Y6070000D01*
X77477643Y6011314D01*
X78376296Y5410854D01*
X79436329Y5200000D01*
X80523671Y5200000D01*
X81583704Y5410854D01*
X82482357Y6011314D01*
X83082817Y6909967D01*
X83293671Y7970000D01*
X83082817Y9030033D01*
X82482357Y9928686D01*
X81612358Y10510000D01*
X82482357Y11091314D01*
X83082817Y11989967D01*
X83293671Y13050000D01*
X83082817Y14110033D01*
X82482357Y15008686D01*
X81583704Y15609146D01*
X80523671Y15820000D01*
X79436329Y15820000D01*
X78376296Y15609146D01*
X77477643Y15008686D01*
X77438430Y14950000D01*
X75230000Y14950000D01*
X74502901Y14805371D01*
X74086436Y14527098D01*
X73886497Y14393503D01*
X72382994Y12890000D01*
X72286572Y12890000D01*
X72413876Y13530000D01*
X72241692Y14395630D01*
X71971501Y14800000D01*
X72241692Y15204370D01*
X72413876Y16070000D01*
X72241692Y16935630D01*
X71751352Y17669476D01*
X71017506Y18159816D01*
X70151876Y18332000D01*
X69068124Y18332000D01*
X68202494Y18159816D01*
X67918414Y17970000D01*
X66500000Y17970000D01*
X65772901Y17825371D01*
X65394441Y17572492D01*
X65182387Y17430802D01*
X64975017Y17572492D01*
X64380000Y17692986D01*
X61580000Y17692986D01*
X61024133Y17588393D01*
X60513604Y17259876D01*
X60171108Y16758617D01*
X60050614Y16163600D01*
X60050614Y14436400D01*
X60155207Y13880533D01*
X60483724Y13370004D01*
X60984983Y13027508D01*
X61580000Y12907014D01*
X63830000Y12907014D01*
X63830000Y12532522D01*
X63573214Y12583600D01*
X62386786Y12583600D01*
X61482275Y12403682D01*
X61057715Y12120000D01*
X54097006Y12120000D01*
X51067006Y15150000D01*
X51735532Y15150000D01*
X51868734Y15016565D01*
X52750516Y14650417D01*
X53705295Y14649584D01*
X54587715Y15014192D01*
X55263435Y15688734D01*
X55359465Y15920000D01*
X57110000Y15920000D01*
X57304528Y15959393D01*
X57468404Y16071365D01*
X57575805Y16238271D01*
X57610000Y16420000D01*
X57610000Y21150000D01*
X66806124Y21150000D01*
X66978308Y20284370D01*
X67468648Y19550524D01*
X68202494Y19060184D01*
X69068124Y18888000D01*
X70151876Y18888000D01*
X71017506Y19060184D01*
X71751352Y19550524D01*
X72241692Y20284370D01*
X72413876Y21150000D01*
X72241692Y22015630D01*
X71751352Y22749476D01*
X71017506Y23239816D01*
X70151876Y23412000D01*
X69068124Y23412000D01*
X68202494Y23239816D01*
X67468648Y22749476D01*
X66978308Y22015630D01*
X66806124Y21150000D01*
X57610000Y21150000D01*
X57610000Y27075000D01*
X66227267Y27075000D01*
X66730000Y26975000D01*
X66730000Y26975000D01*
G37*
X66730000Y26975000D02*
X86405000Y26975000D01*
X86405000Y1875000D01*
X67702416Y1875000D01*
X67492726Y2015110D01*
X66890000Y2135000D01*
X54802934Y2135000D01*
X55469081Y2580105D01*
X56014481Y3396354D01*
X56206000Y4359186D01*
X56206000Y5240814D01*
X56014481Y6203646D01*
X55469081Y7019895D01*
X54652832Y7565295D01*
X53690000Y7756814D01*
X52727168Y7565295D01*
X51910919Y7019895D01*
X51365519Y6203646D01*
X51174000Y5240814D01*
X51174000Y4359186D01*
X51365519Y3396354D01*
X51910919Y2580105D01*
X52577066Y2135000D01*
X47775046Y2135000D01*
X48087715Y2264192D01*
X48763435Y2938734D01*
X49129583Y3820516D01*
X49130416Y4775295D01*
X48765808Y5657715D01*
X48091266Y6333435D01*
X47209484Y6699583D01*
X46254705Y6700416D01*
X46245997Y6696818D01*
X46230000Y6700000D01*
X38767006Y6700000D01*
X37459481Y8007525D01*
X37864000Y8174669D01*
X38455255Y8764893D01*
X38656464Y9249458D01*
X39040937Y9633931D01*
X39377883Y9633637D01*
X40150000Y9952669D01*
X40741255Y10542893D01*
X41061634Y11314452D01*
X41062363Y12149883D01*
X40992072Y12320000D01*
X44400000Y12320000D01*
X44440000Y12327956D01*
X44480000Y12320000D01*
X48522994Y12320000D01*
X51966497Y8876497D01*
X52582901Y8464629D01*
X53310000Y8320000D01*
X60150490Y8320000D01*
X60023186Y7680000D01*
X60203104Y6775489D01*
X60715468Y6008682D01*
X61482275Y5496318D01*
X62386786Y5316400D01*
X63573214Y5316400D01*
X64477725Y5496318D01*
X64902285Y5780000D01*
X65610000Y5780000D01*
X66337099Y5924629D01*
X66953503Y6336497D01*
X67468200Y6851194D01*
X67468648Y6850524D01*
X68202494Y6360184D01*
X69068124Y6188000D01*
X70151876Y6188000D01*
X71017506Y6360184D01*
X71301586Y6550000D01*
X73630983Y6550000D01*
X74132902Y6214628D01*
X74860000Y6069999D01*
X74860005Y6070000D01*
X77438430Y6070000D01*
X77477643Y6011314D01*
X78376296Y5410854D01*
X79436329Y5200000D01*
X80523671Y5200000D01*
X81583704Y5410854D01*
X82482357Y6011314D01*
X83082817Y6909967D01*
X83293671Y7970000D01*
X83082817Y9030033D01*
X82482357Y9928686D01*
X81612358Y10510000D01*
X82482357Y11091314D01*
X83082817Y11989967D01*
X83293671Y13050000D01*
X83082817Y14110033D01*
X82482357Y15008686D01*
X81583704Y15609146D01*
X80523671Y15820000D01*
X79436329Y15820000D01*
X78376296Y15609146D01*
X77477643Y15008686D01*
X77438430Y14950000D01*
X75230000Y14950000D01*
X74502901Y14805371D01*
X74086436Y14527098D01*
X73886497Y14393503D01*
X72382994Y12890000D01*
X72286572Y12890000D01*
X72413876Y13530000D01*
X72241692Y14395630D01*
X71971501Y14800000D01*
X72241692Y15204370D01*
X72413876Y16070000D01*
X72241692Y16935630D01*
X71751352Y17669476D01*
X71017506Y18159816D01*
X70151876Y18332000D01*
X69068124Y18332000D01*
X68202494Y18159816D01*
X67918414Y17970000D01*
X66500000Y17970000D01*
X65772901Y17825371D01*
X65394441Y17572492D01*
X65182387Y17430802D01*
X64975017Y17572492D01*
X64380000Y17692986D01*
X61580000Y17692986D01*
X61024133Y17588393D01*
X60513604Y17259876D01*
X60171108Y16758617D01*
X60050614Y16163600D01*
X60050614Y14436400D01*
X60155207Y13880533D01*
X60483724Y13370004D01*
X60984983Y13027508D01*
X61580000Y12907014D01*
X63830000Y12907014D01*
X63830000Y12532522D01*
X63573214Y12583600D01*
X62386786Y12583600D01*
X61482275Y12403682D01*
X61057715Y12120000D01*
X54097006Y12120000D01*
X51067006Y15150000D01*
X51735532Y15150000D01*
X51868734Y15016565D01*
X52750516Y14650417D01*
X53705295Y14649584D01*
X54587715Y15014192D01*
X55263435Y15688734D01*
X55359465Y15920000D01*
X57110000Y15920000D01*
X57304528Y15959393D01*
X57468404Y16071365D01*
X57575805Y16238271D01*
X57610000Y16420000D01*
X57610000Y21150000D01*
X66806124Y21150000D01*
X66978308Y20284370D01*
X67468648Y19550524D01*
X68202494Y19060184D01*
X69068124Y18888000D01*
X70151876Y18888000D01*
X71017506Y19060184D01*
X71751352Y19550524D01*
X72241692Y20284370D01*
X72413876Y21150000D01*
X72241692Y22015630D01*
X71751352Y22749476D01*
X71017506Y23239816D01*
X70151876Y23412000D01*
X69068124Y23412000D01*
X68202494Y23239816D01*
X67468648Y22749476D01*
X66978308Y22015630D01*
X66806124Y21150000D01*
X57610000Y21150000D01*
X57610000Y27075000D01*
X66227267Y27075000D01*
X66730000Y26975000D01*
G36*
X36126318Y26987725D02*
X35946400Y26083214D01*
X35946400Y24896786D01*
X36126318Y23992275D01*
X36211360Y23865000D01*
X28285000Y23865000D01*
X27557902Y23720372D01*
X26941497Y23308503D01*
X23543158Y19910164D01*
X23234901Y19910433D01*
X22315714Y19530633D01*
X21611839Y18827985D01*
X21230435Y17909462D01*
X21229567Y16914901D01*
X21609367Y15995714D01*
X22312015Y15291839D01*
X23230538Y14910435D01*
X24225099Y14909567D01*
X25144286Y15289367D01*
X25848161Y15992015D01*
X26229565Y16910538D01*
X26229838Y17222832D01*
X29072006Y20065000D01*
X34307994Y20065000D01*
X31136497Y16893503D01*
X30724629Y16277099D01*
X30580000Y15550000D01*
X30580000Y10300000D01*
X30724629Y9572901D01*
X30989096Y9177098D01*
X31136497Y8956497D01*
X36636497Y3456497D01*
X37252902Y3044628D01*
X37980000Y2900000D01*
X44736403Y2900000D01*
X45368734Y2266565D01*
X45685578Y2135000D01*
X27260890Y2135000D01*
X27519871Y13548658D01*
X27481236Y13753032D01*
X27369797Y13917271D01*
X27203239Y14025213D01*
X27007809Y14059851D01*
X15937809Y13789851D01*
X15692212Y13718422D01*
X15545842Y13584375D01*
X15463156Y13403942D01*
X15293976Y12681082D01*
X15146447Y12533553D01*
X15039393Y12374528D01*
X15000000Y12180000D01*
X15000000Y2135000D01*
X2235000Y2135000D01*
X2235000Y5167796D01*
X3033598Y4634190D01*
X4336635Y4375000D01*
X5683365Y4375000D01*
X6986402Y4634190D01*
X8091064Y5372301D01*
X8829175Y6476963D01*
X9088365Y7780000D01*
X8829175Y9083037D01*
X8091064Y10187699D01*
X7893061Y10320000D01*
X8091064Y10452301D01*
X8829175Y11556963D01*
X9088365Y12860000D01*
X8829175Y14163037D01*
X8091064Y15267699D01*
X7893061Y15400000D01*
X8091064Y15532301D01*
X8829175Y16636963D01*
X9088365Y17940000D01*
X8829175Y19243037D01*
X8390714Y19899241D01*
X8576396Y20018724D01*
X8918892Y20519983D01*
X9039386Y21115000D01*
X9039386Y24925000D01*
X8934793Y25480867D01*
X8606276Y25991396D01*
X8105017Y26333892D01*
X7510000Y26454386D01*
X2510000Y26454386D01*
X2235000Y26402641D01*
X2235000Y27075000D01*
X36184633Y27075000D01*
X36126318Y26987725D01*
X36126318Y26987725D01*
G37*
X36126318Y26987725D02*
X35946400Y26083214D01*
X35946400Y24896786D01*
X36126318Y23992275D01*
X36211360Y23865000D01*
X28285000Y23865000D01*
X27557902Y23720372D01*
X26941497Y23308503D01*
X23543158Y19910164D01*
X23234901Y19910433D01*
X22315714Y19530633D01*
X21611839Y18827985D01*
X21230435Y17909462D01*
X21229567Y16914901D01*
X21609367Y15995714D01*
X22312015Y15291839D01*
X23230538Y14910435D01*
X24225099Y14909567D01*
X25144286Y15289367D01*
X25848161Y15992015D01*
X26229565Y16910538D01*
X26229838Y17222832D01*
X29072006Y20065000D01*
X34307994Y20065000D01*
X31136497Y16893503D01*
X30724629Y16277099D01*
X30580000Y15550000D01*
X30580000Y10300000D01*
X30724629Y9572901D01*
X30989096Y9177098D01*
X31136497Y8956497D01*
X36636497Y3456497D01*
X37252902Y3044628D01*
X37980000Y2900000D01*
X44736403Y2900000D01*
X45368734Y2266565D01*
X45685578Y2135000D01*
X27260890Y2135000D01*
X27519871Y13548658D01*
X27481236Y13753032D01*
X27369797Y13917271D01*
X27203239Y14025213D01*
X27007809Y14059851D01*
X15937809Y13789851D01*
X15692212Y13718422D01*
X15545842Y13584375D01*
X15463156Y13403942D01*
X15293976Y12681082D01*
X15146447Y12533553D01*
X15039393Y12374528D01*
X15000000Y12180000D01*
X15000000Y2135000D01*
X2235000Y2135000D01*
X2235000Y5167796D01*
X3033598Y4634190D01*
X4336635Y4375000D01*
X5683365Y4375000D01*
X6986402Y4634190D01*
X8091064Y5372301D01*
X8829175Y6476963D01*
X9088365Y7780000D01*
X8829175Y9083037D01*
X8091064Y10187699D01*
X7893061Y10320000D01*
X8091064Y10452301D01*
X8829175Y11556963D01*
X9088365Y12860000D01*
X8829175Y14163037D01*
X8091064Y15267699D01*
X7893061Y15400000D01*
X8091064Y15532301D01*
X8829175Y16636963D01*
X9088365Y17940000D01*
X8829175Y19243037D01*
X8390714Y19899241D01*
X8576396Y20018724D01*
X8918892Y20519983D01*
X9039386Y21115000D01*
X9039386Y24925000D01*
X8934793Y25480867D01*
X8606276Y25991396D01*
X8105017Y26333892D01*
X7510000Y26454386D01*
X2510000Y26454386D01*
X2235000Y26402641D01*
X2235000Y27075000D01*
X36184633Y27075000D01*
X36126318Y26987725D01*
M02*
