M48
METRIC,TZ
T1C0.700
T2C0.762
T3C0.800
T4C1.016
T5C1.524
%
G90
G05
T1
X23730Y17410
X36676Y9956
X38480Y13800
X38730Y6550
X38962Y11734
X39480Y17300
X46730Y4300
X49340Y25530
X53230Y17050
X58900Y19130
X65340Y26480
T2
X69610Y21150
X69610Y18610
X69610Y16070
X69610Y13530
X69610Y10990
X69610Y8450
T3
X20190Y9490
X20190Y4490
T4
X35770Y25490
X38310Y25490
X40850Y25490
X43390Y25490
X45930Y25490
X53690Y4800
X56230Y4800
X62980Y15300
X62980Y12760
X62980Y10220
X62980Y7680
T5
X5010Y23020
X5010Y17940
X5010Y12860
X5010Y7780
X79980Y18130
X79980Y13050
X79980Y7970
T0
M30
